<svg id="Layer_1" data-name="Layer 1" xmlns="http://www.w3.org/2000/svg" viewBox="0 0 3840 2160">
  <defs>
    <style>
      .cls-1 {
        fill: #282828;
      }

      .cls-2 {
        fill: #112818;
      }
    </style>
  </defs>
  <g>
    <g>
      <g>
        <path d="M112.82115,1035.25893,166.0676,631.353H406.09548L397.267,702.532H241.10972l-11.85948,90.77027H384.8509l-9.104,69.52294H220.42175l-22.62781,172.43375Z"/>
        <path d="M524.45338,764.60691c5.07224,56.74-65.74648,207.66179,28.40315,212.4366,88.75563,1.894,68.70791-148.70371,85.82444-212.43661-.00838,0,78.07026,0,78.07026,0-14.71342,71.57263-9.97939,193.10942-59.86715,243.61566-46.19946,48.21765-148.60715,49.61891-197.267,10.62038-49.05453-38.88383-32.34543-96.61264-25.934-155.46375C451.68083,776.80644,414.5956,755.98182,524.45338,764.60691Z"/>
        <path d="M770.27323,1035.25893l27.86318-209.12542c-72.44527,4.62624-47.2782-4.06659-43.591-61.53068-.00036.00408,51.31727.00408,51.31727.00408l11.865-89.94088c107.35954-5.57681,73.86618,1.25439,66.212,89.94683.0016-.00595,52.42142-.00595,52.42142-.00595-9.88116,59.18718,9.37439,65.92688-60.42355,61.5215.00189.0051-27.58575,209.13052-27.58575,209.13052Z"/>
        <path d="M1057.20449,764.60691c5.07224,56.74-65.74648,207.66179,28.40315,212.4366,88.75563,1.894,68.70791-148.70371,85.82444-212.43661-.00838,0,78.07025,0,78.07025,0-14.71341,71.57263-9.97938,193.10942-59.86714,243.61566-46.19947,48.21765-148.60715,49.61891-197.267,10.62038-49.05453-38.88383-32.34543-96.61264-25.934-155.46375C984.43194,776.80644,947.3467,755.98182,1057.20449,764.60691Z"/>
        <path d="M1287.84728,1035.25893l35.595-270.652h78.07312l-6.89415,47.45448c20.53848-42.14806,61.49169-65.45207,106.21831-53.79637-14.09876,132.95329-31.66982,34.11806-96.43315,94.76159-28.76852,30.02619-30.39618,140.35547-38.48279,182.23419Z"/>
        <path d="M1587.74572,917.17657c-7.07047,75.87924,98.99276,84.84066,132.42586,27.0331l52.42123,43.59478c-28.66294,41.55522-72.50576,58.12908-124.14974,58.21184-134.79912,9.98383-179.82772-163.3908-94.62822-246.23533,92.31629-96.2936,266.551-27.47679,238.635,116.0189C1795.45019,919.36658,1587.58616,916.11791,1587.74572,917.17657Zm4.1387-45.79845h127.46193C1722.27105,788.83343,1602.58448,799.60561,1591.88442,871.37812Z"/>
      </g>
      <g>
        <path class="cls-1" d="M101.5348,1023.97258l53.24645-403.90593H394.80912l-8.82848,71.179H229.82337l-11.85949,90.77027H373.56455l-9.104,69.52294H209.1354l-22.62782,172.43376Z"/>
        <path class="cls-1" d="M513.167,753.32055c5.07224,56.74-65.74648,207.6618,28.40315,212.4366,88.75563,1.894,68.70791-148.7037,85.82444-212.4366h78.07025c-14.71341,71.57264-9.97938,193.10943-59.86714,243.61567-46.19947,48.21765-148.60715,49.61891-197.267,10.62038-49.05453-38.88383-32.34543-96.61264-25.934-155.46375C440.39448,765.52009,403.30924,744.69547,513.167,753.32055Z"/>
        <path class="cls-1" d="M758.98687,1023.97258l27.86319-209.12542c-72.44527,4.62623-47.2782-4.06659-43.591-61.53068-.00037.00407,51.31727.00407,51.31727.00407l11.865-89.94087c107.35953-5.57682,73.86617,1.25439,66.212,89.94682.0016-.00595,52.42142-.00595,52.42142-.00595-9.88116,59.18719,9.37439,65.92689-60.42355,61.5215.00188.00511-27.58575,209.13053-27.58575,209.13053Z"/>
        <path class="cls-1" d="M1045.91814,753.32055c5.07224,56.74-65.74649,207.6618,28.40314,212.4366,88.75564,1.894,68.70792-148.7037,85.82444-212.4366H1238.216c-14.71341,71.57264-9.97938,193.10943-59.86714,243.61567-46.19947,48.21765-148.60715,49.61891-197.267,10.62038-49.05454-38.88383-32.34543-96.61264-25.934-155.46375C973.14559,765.52009,936.06035,744.69547,1045.91814,753.32055Z"/>
        <path class="cls-1" d="M1276.56092,1023.97258l35.595-270.652H1390.229l-6.89415,47.45449c20.53847-42.14806,61.49169-65.45207,106.2183-53.79637-14.09876,132.95329-31.66981,34.11806-96.43314,94.76159-28.76852,30.02619-30.39618,140.35547-38.4828,182.23419Z"/>
        <path class="cls-1" d="M1576.45937,905.89022c-7.07047,75.87924,98.99275,84.84066,132.42586,27.0331l52.42123,43.59477c-28.66294,41.55523-72.50576,58.12909-124.14975,58.21185-134.79911,9.98383-179.82772-163.3908-94.62821-246.23533,92.31628-96.29361,266.551-27.47679,238.635,116.0189C1784.16384,908.08023,1576.29981,904.83155,1576.45937,905.89022Zm4.1387-45.79846H1708.06C1710.9847,777.54708,1591.29812,788.31926,1580.59807,860.09176Z"/>
      </g>
    </g>
    <g>
      <path d="M425.54718,1510.85931c-353.68891,159.10211-441.869-386.0497-84.14239-398.94992,47.91106.03565,90.30664,11.25215,129.93812,36.70094-16.67557,80.57064,10.90714,89.32286-71.45282,46.61938C209.8784,1110.067,97.24585,1450.29379,314.63791,1462.31463,418.939,1473.2051,450.31874,1356.77628,425.54718,1510.85931Z"/>
      <path d="M650.398,1245.72371c202.30482-7.33231,169.09792,305.51833-19.87742,290.51355C431.5655,1542.732,465.69147,1231.68286,650.398,1245.72371Zm.55109,71.18448c-85.03159-8.51553-112.31918,148.11811-17.9307,148.15358C718.31225,1473.29855,745.14052,1317.6498,650.94908,1316.90819Z"/>
      <path d="M828.34541,1525.47977l35.595-270.652h72.28115l-6.06752,42.48915c31.52676-45.699,87.92011-68.488,134.08266-38.06869,45.2384,56.8687,24.46728,28.45167,73.11561-1.25319,54.614-32.60029,128.14511,1.00146,123.31539,69.67258.23077,35.59045-20.15092,159.35916-23.71824,197.81338l-76.97927-.0012c-1.19367-38.40644,36.40046-173.33207,13.38811-205.26513-47.98683-32.95209-82.68257,17.60857-85.11268,71.45821-.00549.00192-17.38691,133.80692-17.38691,133.80692H993.33117c-.21956-38.691,36.51571-172.70051,13.38914-205.265-47.88163-32.77357-81.62835,17.345-84.01138,71.45781-.00564.00223-17.66261,133.80723-17.66261,133.80723Z"/>
      <path d="M1361.64761,1097.84935h78.07864c-4.95132,28.50779-18.914,161.30327-28.69376,185.67806q20.96115-19.044,42.3498-28.41861c270.9764-75.70433,143.9416,438.41106-65.80763,238.08468.00732.00886-3.85584,32.28629-3.85584,32.28629h-77.80308Zm170.22663,284.17029c-1.76589-109.90516-148.45752-73.6337-134.62955,26.4895C1399.877,1512.20843,1547.41148,1478.95029,1531.87424,1382.01964Z"/>
      <path d="M1650.5077,1525.47977l35.03839-270.652h78.07863l-35.03839,270.652Zm41.387-375.2106c-1.65384-59.67375,92.83235-59.49863,91.31561.004C1784.71659,1209.76414,1690.23638,1209.93451,1691.89466,1150.26917Z"/>
      <path d="M1805.28172,1525.47977l35.595-270.652h72.28115l-6.06751,42.48915c75.07768-93.37405,228.21506-55.20349,188.4277,78.91-.8266,5.60333-18.76624,143.24615-19.58595,149.26487.00164-.012-78.077-.012-78.077-.012,4.172-64.46993,70.739-288.14564-72.70109-194.639-31.67668,28.45951-32.68153,153.58966-41.7975,194.64076Z"/>
      <path d="M2414.17714,1525.47977h-77.80309l4.41424-30.07306q-13.79658,20.4262-34.4873,30.62415c-198.42366,80.53644-209.393-284.27276-27.03-280.30579,37.89107-.00147,67.78091,15.05959,88.00281,46.902l4.68977-37.79936h77.80309ZM2359.54744,1375.12c-2.46407-109.1515-148.33252-73.52661-134.62406,26.48952C2229.66524,1506.8887,2372.296,1473.53487,2359.54744,1375.12Z"/>
      <path d="M2501.91089,1525.47977l27.86318-209.12267c-72.44751,4.62722-47.27687-4.07009-43.591-61.53343-.00036.00407,51.31728.00407,51.31728.00407l11.865-89.93812c107.35695-5.57575,73.86765,1.25085,66.212,89.94407.0016-.00595,52.42142-.00595,52.42142-.00595-9.8817,59.18674,9.37661,65.93055-60.42356,61.52426.00189.0051-27.58574,209.12777-27.58574,209.12777Z"/>
      <path d="M2680.41492,1525.47977l35.03839-270.652h78.07863l-35.03839,270.652Zm41.387-375.2106c-1.65384-59.67375,92.83235-59.49863,91.31561.004C2814.62381,1209.76414,2720.1436,1209.93451,2721.80188,1150.26917Z"/>
      <path d="M2990.51958,1245.72371c202.30481-7.33231,169.09791,305.51833-19.87743,290.51355C2771.68709,1542.732,2805.81306,1231.68286,2990.51958,1245.72371Zm.55109,71.18448c-85.0316-8.51553-112.31918,148.11811-17.93071,148.15358C3058.43383,1473.29855,3085.2621,1317.6498,2991.07067,1316.90819Z"/>
      <path d="M3168.467,1525.47977l35.595-270.652h72.28116l-6.06752,42.48915c75.07768-93.37405,228.21507-55.20349,188.42771,78.91-.8266,5.60333-18.76625,143.24615-19.586,149.26487.00164-.012-78.077-.012-78.077-.012,4.172-64.46993,70.739-288.14564-72.7011-194.639-31.67668,28.45951-32.68152,153.58966-41.7975,194.64076Z"/>
      <path d="M3540.65211,1438.57265c17.45745,32.17871,85.742,67.24172,96.01608,16.27948-19.09629-53.79773-169.81207-73.99871-72.978-184.44075,48.07447-40.31346,132.9892-29.5105,174.775,19.45612-35.612,26.46679-34.83905,56.96812-75.45017,17.65652-51.60229-27.78283-85.36679,26.01576-14.48534,54.07351C3753.46954,1398.87,3712.66164,1544.09,3605.756,1535.6891c-45.00022-.13119-79.4248-18.18908-110.90508-51.59071Z"/>
    </g>
    <g>
      <path class="cls-1" d="M414.26082,1499.573c-353.6889,159.10211-441.86895-386.0497-84.14239-398.94992,47.91106.03565,90.30664,11.25215,129.93812,36.70094-16.67556,80.57063,10.90714,89.32286-71.45282,46.61938-190.01168-85.16271-302.64423,255.06408-85.25217,267.08492C407.65269,1461.91875,439.03238,1345.48993,414.26082,1499.573Z"/>
      <path class="cls-1" d="M639.11164,1234.43736c202.30482-7.33231,169.09792,305.51833-19.87742,290.51355C420.27915,1531.44563,454.40512,1220.39651,639.11164,1234.43736Zm.55109,71.18448c-85.0316-8.51553-112.31918,148.11811-17.93071,148.15358C707.02589,1462.0122,733.85416,1306.36344,639.66273,1305.62184Z"/>
      <path class="cls-1" d="M817.05906,1514.19341l35.595-270.652h72.28115l-6.06752,42.48915c31.52675-45.699,87.92011-68.488,134.08266-38.06869,45.2384,56.8687,24.46728,28.45167,73.1156-1.25319,54.614-32.6003,128.14511,1.00145,123.3154,69.67257.23076,35.59046-20.15093,159.35917-23.71824,197.81339l-76.97927-.00121c-1.19368-38.40643,36.40046-173.33207,13.38811-205.26512-47.98683-32.95209-82.68257,17.60857-85.11268,71.4582-.00549.00192-17.38691,133.80692-17.38691,133.80692H982.04481c-.21955-38.691,36.51572-172.70051,13.38915-205.265-47.88164-32.77357-81.62835,17.345-84.01138,71.45781-.00564.00222-17.66261,133.80722-17.66261,133.80722Z"/>
      <path class="cls-1" d="M1350.36126,1086.563h78.07863c-4.95131,28.50778-18.914,161.30327-28.69375,185.67806q20.96115-19.044,42.3498-28.41861c270.97639-75.70433,143.9416,438.41106-65.80763,238.08468.00731.00886-3.85584,32.28628-3.85584,32.28628h-77.80309Zm170.22663,284.17029c-1.76589-109.90516-148.45752-73.63371-134.62956,26.4895C1388.59066,1500.92208,1536.12513,1467.66394,1520.58789,1370.73329Z"/>
      <path class="cls-1" d="M1639.22134,1514.19341l35.0384-270.652h78.07863L1717.3,1514.19341Zm41.387-375.2106c-1.65385-59.67375,92.83235-59.49863,91.31561.004C1773.43024,1198.47779,1678.95,1198.64816,1680.60831,1138.98281Z"/>
      <path class="cls-1" d="M1793.99537,1514.19341l35.595-270.652h72.28115l-6.06752,42.48915c75.07768-93.374,228.21507-55.20349,188.42771,78.91-.8266,5.60333-18.76624,143.24615-19.586,149.26486.00164-.012-78.077-.012-78.077-.012,4.172-64.46992,70.739-288.14563-72.7011-194.639-31.67667,28.4595-32.68152,153.58966-41.7975,194.64076Z"/>
      <path class="cls-1" d="M2402.89078,1514.19341h-77.80309l4.41425-30.07306q-13.79658,20.42621-34.4873,30.62416c-198.42366,80.53644-209.393-284.27276-27.03-280.30579,37.89108-.00147,67.78092,15.05959,88.00282,46.902l4.68977-37.79936h77.80309Zm-54.62969-150.35978c-2.46407-109.1515-148.33252-73.52662-134.62406,26.48952C2218.37888,1495.60235,2361.00968,1462.24851,2348.26109,1363.83363Z"/>
      <path class="cls-1" d="M2490.62454,1514.19341l27.86318-209.12266c-72.44751,4.62722-47.27687-4.07009-43.591-61.53344-.00036.00408,51.31727.00408,51.31727.00408l11.865-89.93812c107.35695-5.57575,73.86765,1.25084,66.212,89.94407.00161-.00595,52.42142-.00595,52.42142-.00595-9.88169,59.18674,9.37661,65.93055-60.42355,61.52426.00189.0051-27.58575,209.12776-27.58575,209.12776Z"/>
      <path class="cls-1" d="M2669.12856,1514.19341l35.0384-270.652h78.07863l-35.03839,270.652Zm41.387-375.2106c-1.65385-59.67375,92.83235-59.49863,91.31561.004C2803.33746,1198.47779,2708.85725,1198.64816,2710.51553,1138.98281Z"/>
      <path class="cls-1" d="M2979.23322,1234.43736c202.30482-7.33231,169.09792,305.51833-19.87742,290.51355C2760.40073,1531.44563,2794.5267,1220.39651,2979.23322,1234.43736Zm.55109,71.18448c-85.03159-8.51553-112.31917,148.11811-17.9307,148.15358C3047.14748,1462.0122,3073.97575,1306.36344,2979.78431,1305.62184Z"/>
      <path class="cls-1" d="M3157.18065,1514.19341l35.595-270.652h72.28115l-6.06751,42.48915c75.07768-93.374,228.21506-55.20349,188.42771,78.91-.82661,5.60333-18.76625,143.24615-19.586,149.26486.00164-.012-78.077-.012-78.077-.012,4.172-64.46992,70.739-288.14563-72.7011-194.639-31.67668,28.4595-32.68153,153.58966-41.7975,194.64076Z"/>
      <path class="cls-2" d="M3529.36575,1427.2863c17.45746,32.1787,85.742,67.24172,96.01609,16.27948-19.09629-53.79773-169.81208-73.99871-72.978-184.44075,48.07446-40.31346,132.9892-29.51051,174.775,19.45611-35.612,26.46679-34.839,56.96813-75.45017,17.65653-51.60229-27.78283-85.36679,26.01575-14.48534,54.07351,104.93984,37.27249,64.13194,182.49246-42.77371,174.09157-45.00022-.13119-79.4248-18.18908-110.90508-51.59071Z"/>
    </g>
  </g>
</svg>
